<?xml version="1.0" standalone="no"?><!DOCTYPE svg PUBLIC "-//W3C//DTD SVG 1.1//EN" "http://www.w3.org/Graphics/SVG/1.1/DTD/svg11.dtd"><svg t="1754998116816" class="icon" viewBox="0 0 1024 1024" version="1.1" xmlns="http://www.w3.org/2000/svg" p-id="1520" data-spm-anchor-id="a313x.search_index.0.i6.74c23a81xaKq1I" width="64" height="64" xmlns:xlink="http://www.w3.org/1999/xlink"><path d="M516.5 530.6m-428.9 0a428.9 428.9 0 1 0 857.8 0 428.9 428.9 0 1 0-857.8 0Z" fill="#ffffff" p-id="1521" data-spm-anchor-id="a313x.search_index.0.i2.74c23a81xaKq1I" class="selected"></path><path d="M516.5 530.6m-393.7 0a393.7 393.7 0 1 0 787.4 0 393.7 393.7 0 1 0-787.4 0Z" fill="#007bff" p-id="1522" data-spm-anchor-id="a313x.search_index.0.i1.74c23a81xaKq1I" class=""></path><path d="M512 530.6m-353.9 0a353.9 353.9 0 1 0 707.8 0 353.9 353.9 0 1 0-707.8 0Z" fill="#ffffff" p-id="1523" data-spm-anchor-id="a313x.search_index.0.i0.74c23a81xaKq1I" class="selected"></path><path d="M592.9 325.5c13.7 16 27.3 15.5 73.3 87.5 12.5-27-26-82.5-26-82.5s122 52 116 235.3-134 203-154 202.8-14.7-50.1-66.7-50.1-45.3 48-66.3 50c-21.1 2-164.9-4-174.9-176s94-202 146-252 18-102 18-102 120.9 71 134.6 87z m-100.6-39s-7.5 50.6-49.9 91.4-127.2 78.8-119 219.1c8.2 140.3 116.2 145.2 133.4 143.5 17.2-1.6 34.4-40.8 76.8-40.8s62.9 40.8 79.2 40.9c16.3 0.1 111.3-15.9 116.2-165.4s-48-191.9-48-191.9 25.3 81.2 1.3 93.2c-37.9-51.5-53-80-80-106.6-27-26.7-110-83.4-110-83.4z" fill="#007bff" p-id="1524" data-spm-anchor-id="a313x.search_index.0.i5.74c23a81xaKq1I" class=""></path><path d="M610.7 599.9c0 88.1-52.4 83.2-83.6 83.2-31.2 0-87.7 4.9-87.7-83.2s56.5-186.8 87.7-186.8c31.1 0 83.6 98.7 83.6 186.8z" fill="#007bff" p-id="1525" data-spm-anchor-id="a313x.search_index.0.i3.74c23a81xaKq1I" class=""></path></svg>