<?xml version="1.0" standalone="no"?><!DOCTYPE svg PUBLIC "-//W3C//DTD SVG 1.1//EN" "http://www.w3.org/Graphics/SVG/1.1/DTD/svg11.dtd"><svg t="1744595689750" class="icon" viewBox="0 0 1024 1024" version="1.1" xmlns="http://www.w3.org/2000/svg" p-id="12244" xmlns:xlink="http://www.w3.org/1999/xlink" width="200" height="200"><path d="M753.95402862 308.89186812c34.17482973 19.73435282 34.41381455 51.7655611 0.40554999 71.52888179L578.03947282 482.88006139c-34.0372324 19.76332069-89.30790425 19.73435282-123.48997593 0L270.38634372 376.57526684c-34.23276544-19.76332069-34.47175027-51.79452896-0.45624375-71.55784965L446.25020575 202.52913785c34.0372324-19.76332069 89.30790425-19.73435282 123.54066969 0zM440.73182893 503.78037047c32.01672435 18.481493 57.93571472 63.32373619 57.83432721 100.17085076l-0.54314732 191.0212934c-0.1013875 36.84711457-26.20142698 51.65693164-58.21090936 33.17543865L267.30850887 728.53473377C235.24109077 710.03875684 209.28589058 665.19651366 209.4234879 628.34215712l0.54314733-191.02129339c0.1013875-36.84711457 26.20142698-51.65693164 58.26884508-33.1464708zM809.15228081 437.35707355c-0.1013875-36.84711457-26.20142698-51.71486735-58.26884509-33.2044065L578.37984515 503.74416065c-32.01672435 18.481493-57.93571472 63.38891387-57.83432723 100.23602843l0.54314733 190.9633577c0.1013875 36.84711457 26.20142698 51.71486735 58.21090936 33.23337435l172.50359059-99.59873557c32.0674181-18.51770282 57.99365044-63.41788173 57.88502097-100.2649963z m-201.10934973 309.89089608l-0.10862946-37.06437349 81.9428265-158.29485656-79.10397649 45.66782715-0.10862946-37.31060029L740.89676691 485.05989266l0.10862946 37.31060027L659.0118761 680.73776912l82.32665062-47.53625391 0.10138752 37.07161545z" p-id="12245" fill="#A36EE6"></path></svg>