<?xml version="1.0" standalone="no"?><!DOCTYPE svg PUBLIC "-//W3C//DTD SVG 1.1//EN" "http://www.w3.org/Graphics/SVG/1.1/DTD/svg11.dtd"><svg t="1755002555661" class="icon" viewBox="0 0 1024 1024" version="1.1" xmlns="http://www.w3.org/2000/svg" p-id="23717" xmlns:xlink="http://www.w3.org/1999/xlink" width="48" height="48"><path d="M927.744 344.405333l-328.362667 178.176c-30.378667 16.384-48.810667 48.810667-48.810666 84.992v344.405334c0 36.864 36.181333 61.44 66.56 44.373333l328.362666-178.176c29.696-16.384 48.810667-48.810667 48.810667-84.992V389.461333c0-37.546667-36.522667-61.44-66.56-45.056zM427.690667 521.898667l-328.362667-177.493334c-30.378667-16.384-66.56 7.509333-66.56 44.373334v346.112c0 36.181333 18.432 68.608 48.810667 84.992l328.362666 177.493333c30.378667 16.384 66.56-8.192 66.56-45.056V606.890667c0-36.181333-18.432-68.949333-48.810666-84.992zM897.365333 274.090667c15.36-8.192 22.869333-22.186667 21.504-35.498667 1.365333-13.994667-5.802667-27.306667-21.504-35.498667L563.2 28.672c-14.677333-8.192-32.426667-11.946667-50.176-11.946667S477.525333 20.48 462.506667 28.672L128.341333 202.410667c-15.36 8.192-22.186667 22.186667-21.504 35.498666-0.682667 13.994667 5.802667 27.989333 21.504 36.181334l334.165334 173.738666c14.677333 8.192 32.426667 11.946667 50.176 11.946667s35.498667-3.754667 50.176-11.946667l334.506666-173.738666z" p-id="23718" fill="#007bff"></path></svg>