<?xml version="1.0" standalone="no"?><!DOCTYPE svg PUBLIC "-//W3C//DTD SVG 1.1//EN" "http://www.w3.org/Graphics/SVG/1.1/DTD/svg11.dtd"><svg t="1744452689388" class="icon" viewBox="0 0 1024 1024" version="1.1" xmlns="http://www.w3.org/2000/svg" p-id="13010" xmlns:xlink="http://www.w3.org/1999/xlink" width="200" height="200"><path d="M630.342937 197.885467l-207.859328 0c-10.205286 120.578166-20.102946 219.424943-29.69298 296.495174-9.604145 77.101276-18.900664 143.396125-27.898024 198.881724-8.99736 55.485599-18.30799 106.037891-27.895202 151.620186-7.803544 35.399587-19.20829 63.148031-34.19166 83.239688-15.005948 20.086013-37.205832 34.039258-66.594008 41.837158-24.003307 5.997299-47.845746 1.196638-71.538605-14.393518-23.704148-15.604266-37.948086-34.197305-42.743103-55.796048-3.598379-16.194118-4.501502-29.836915-2.698079-40.93968 1.797779-11.102764 5.091354-21.449164 9.900482-31.050486 4.795017-9.590034 10.188353-18.293879 16.194118-26.094601 5.991654-7.789433 12.288113-15.592977 18.897842-23.399344 1.797779-2.381986 12.147-14.695499 31.044842-36.898206 18.897842-22.174484 33.14178-42.42701 42.745925-60.735 9.587212-18.285412 15.590155-38.535116 17.994719-60.737822l53.989802-422.032048L222.715696 197.882645c-24.607271 0-48.00097 5.850542-70.192388 17.54598-22.199884 11.695439-39.297125 25.346702-51.288901 40.942502l-38.695984 57.588182L31.044842 313.959309c8.393396-23.390877 18.897842-51.427192 31.493581-84.134344 12.595739-32.690219 29.99214-64.341846 52.194846-94.935127 17.390756-25.792619 40.787278-48.144905 70.186743-67.042747C214.308188 48.954893 248.497026 39.511617 287.503459 39.511617l687.499314 0 0 158.37385-232.173084 0c-14.997481 143.382014-22.487755 287.658683-22.487755 432.835653 0 26.402227 4.487391 52.183557 13.493217 77.38068 8.994537 25.191478 20.080368 44.399768 33.294182 57.596649 16.795259 15.598622 37.344123 25.643039 61.649412 30.136075 24.282711 4.504324 49.031094-3.146818 74.236684-22.942138 13.795199-10.79796 23.83115-23.091718 30.141719-36.892561 6.304925-13.792377 10.337932-26.992079 12.141355-39.593463 1.803423-12.595739 3.604024-25.197123 5.404625-37.798506l38.695984 0c-0.601141 49.801571-8.105526 94.644434-22.501866 134.537056-14.393518 39.892622-31.487936 71.984522-51.288901 96.275699-19.798142 24.302467-39.299948 41.848447-58.494127 52.635118-21.598743 13.19688-46.784577 21.155649-75.588546 23.85655-28.789858 2.706546-55.197729-4.052763-79.175636-20.246881-39.596285-28.801147-69.60818-74.084282-90.007464-135.877629-11.387812-35.995083-17.84514-83.533203-19.346581-142.628471-1.498619-59.086801 0.448739-116.830207 5.853364-173.230218L630.342937 197.885467z" fill="#8F77F0" p-id="13011"></path></svg>