<?xml version="1.0" standalone="no"?><!DOCTYPE svg PUBLIC "-//W3C//DTD SVG 1.1//EN" "http://www.w3.org/Graphics/SVG/1.1/DTD/svg11.dtd"><svg t="1744453225387" class="icon" viewBox="0 0 1297 1024" version="1.1" xmlns="http://www.w3.org/2000/svg" p-id="15910" xmlns:xlink="http://www.w3.org/1999/xlink" width="253.3203125" height="200"><path d="M777.097378 98.324277l10.807763 18.269782-21.108594-2.534653-14.052119 15.978455-4.065584-20.905821-19.526971-8.41505 18.573941-10.361663 2.027723-21.149149 15.572911 14.457664 20.753742-4.623208-8.982812 19.283643z m280.636832 538.380673l-18.269782 10.807763 2.534653-21.098456-15.927762-14.052118 20.855129-4.116278 8.415049-19.486415 10.341386 18.57394 21.169426 1.97703-14.457663 15.583049 4.613069 20.743604-19.283644-8.92198V636.70495z" fill="#8F77F0" p-id="15911"></path><path d="M1057.724071 636.70495l-18.249505 10.807763 2.534654-21.098456-15.937901-14.052118 20.855129-4.116278 8.415049-19.486415 10.341386 18.57394 21.169426 1.97703-14.457663 15.583049 4.613069 20.743604-19.283644-8.92198zM566.832665 99.155644l-17.245782-12.44008 20.33806-6.144 6.448158-20.236673 12.135921 17.438416 21.250534-0.141941-12.835485 16.951763 6.691485 20.196119-20.074455-6.944951-17.11398 12.571881 0.405544-21.260673zM982.637497 777.459327l-21.007208 3.447128 10.047366-18.726019-9.743207-18.918654 20.905821 3.751287 14.974733-15.116673 2.889505 21.057901 18.969346 9.540436-19.121425 9.28697-3.203802 20.986931-14.70099-15.309307zM424.212784 155.404673l-20.601663-5.272079 16.728713-13.149782-1.297743-21.20998 17.590495 11.831762 19.800713-7.806733-5.839842 20.429307 13.545189 16.394139-21.209981 0.811089-11.416079 17.914931-7.299802-19.942654z m422.445624 733.123169l-20.55097-5.27208 16.698297-13.149782-1.31802-21.20998 17.651327 11.882455 19.729742-7.877703-5.77901 20.449585 13.555327 16.394138-21.260673 0.800951-11.416079 17.91493-7.309941-19.932514z m-289.214099 26.938297l10.817901 18.269782-21.108594-2.534654-14.052119 15.927763-4.116277-20.855129-19.486416-8.41505 18.573941-10.361663 1.977029-21.149148 15.58305 14.457663 20.743604-4.623208-8.92198 19.283644zM240.643042 417.011327l-18.320476 10.868594 2.534654-21.118733-15.927763-14.092673 20.855129-4.075723 8.41505-19.52697 10.341386 18.57394 21.169426 2.027723-14.457664 15.572911 4.663763 20.753743-19.283644-8.982812h0.010139z" fill="#8F77F0" p-id="15912"></path><path d="M240.632903 417.011327l-18.320475 10.868594 2.544792-21.118733-15.927763-14.092673 20.855129-4.075723 8.41505-19.52697 10.341386 18.57394 21.169426 2.027723-14.457664 15.572911 4.663763 20.753743-19.283644-8.982812z m453.976713 518.539406l-17.255921-12.379248 20.297505-6.184554 6.488713-20.236674 12.135921 17.448555 21.260673-0.101386-12.845624 16.941624 6.701624 20.135287-20.094733-6.944951-17.154534 12.58202 0.466376-21.250535zM300.866408 276.378614l-21.007208 3.396436 10.037228-18.72602-9.73307-18.857822 20.905822 3.741148 14.964594-15.106534 2.889505 21.037624 18.979485 9.550574-19.131564 9.226138-3.183525 21.057901-14.721267-15.309307z" fill="#8F77F0" p-id="15913"></path><path d="M404.026804 89.787564a482.567604 482.567604 0 0 1 500.07699 11.679684l24.79905-14.295446a507.386931 507.386931 0 0 0-790.507723 455.517782l24.819327-14.254891a482.476356 482.476356 0 0 1 240.792079-438.63699h0.010138z m481.28 835.320396a482.567604 482.567604 0 0 1-500.056713-11.517465l-24.768634 14.254891a507.386931 507.386931 0 0 0 790.446892-455.477228l-24.535446 14.254892a482.618297 482.618297 0 0 1-241.065822 438.48491h-0.010138z" fill="#8F77F0" p-id="15914"></path><path d="M806.732547 788.834851a323.705663 323.705663 0 0 1-255.878337 29.270179l-29.533782 17.04301a350.086337 350.086337 0 0 0 468.566178-270.031842l-29.513505 17.002455A323.969267 323.969267 0 0 1 806.732547 788.824713zM482.550368 226.08095a323.705663 323.705663 0 0 1 255.868198-29.280316l29.533783-17.053149a350.086337 350.086337 0 0 0-468.616872 270.031842l29.574337-17.002456c20.419168-87.181941 76.039604-162.01505 153.640554-206.685782V226.091089z m794.360396 145.306614c-4.014891 4.765149-8.840871 8.790178-14.265029 11.882456L227.594646 979.89703a53.329109 53.329109 0 0 1-72.754694-19.587802L7.150764 704.400475A53.227723 53.227723 0 0 1 26.667596 631.635644L1062.002566 34.998495a53.329109 53.329109 0 0 1 72.754693 19.587802l147.496555 255.92903a53.47105 53.47105 0 0 1-5.332911 60.882376zM31.899121 659.841267a27.850772 27.850772 0 0 0-2.788119 31.865664l147.486416 255.929029a27.901465 27.901465 0 0 0 38.121188 10.138614l1035.304554-596.47493a27.901465 27.901465 0 0 0 10.148753-38.100911L1112.73619 67.21901a27.850772 27.850772 0 0 0-38.050218-10.138614L39.361141 653.595881c-2.84895 1.61204-5.373465 3.720871-7.46202 6.235248z" fill="#8F77F0" p-id="15915"></path><path d="M345.46617 557.927921c2.098693 23.268119-1.865505 47.185109-12.156198 72.18693l11.760792 10.990258c12.916594-29.361426 18.026455-57.546772 15.795961-84.596594l-15.400555 1.419406z m32.798416 40.311129c2.838812 27.21204-1.277465 55.336554-12.42994 84.191049l11.750653 10.980119a225.401663 225.401663 0 0 0 11.162614-33.741307l47.509544 82.28499 13.332278-7.695208-56.431525-97.736238c1.601901-13.281584 1.703287-26.492198 0.314297-39.591287l-15.207921 1.307882z m39.895446-81.240713l12.156198 21.057901-43.078971 24.870019 7.249109 12.551604 43.078971-24.870019 13.940594 24.150178-50.419327 29.097822 7.360634 12.754376 115.12396-66.468753-7.360634-12.744237-51.382495 29.665584-13.940594-24.150178 43.464238-25.09307-7.249109-12.551604-43.464238 25.09307-12.156198-21.057901-13.322138 7.705346z m4.866534 122.626534l7.46202 12.936872 74.954772-43.271604 26.654416 46.171247c3.791842 6.569822 2.514376 11.943287-3.852673 15.613465-8.12103 4.694178-17.032871 9.327525-26.25901 13.869624l10.787485 11.547881 27.424951-15.836514c12.369109-7.137584 15.06598-17.195089 7.806732-29.746693l-28.651722-49.648793 22.59897-13.048396-7.472158-12.936871-22.609109 13.048396-8.242693-14.295445-13.910179 8.029782 8.252832 14.295445-74.954772 43.271604z m34.613228 7.309941l-6.914535 13.007841c16.667881 4.795564 30.780832 10.037228 42.085387 15.36l6.35691-13.971009c-10.473188-4.765149-24.363089-9.631683-41.527762-14.396832zM509.924626 474.84198l7.472158 12.936871L593.111952 444.071287l9.702654 16.809822-59.108119 34.126574 44.163802 76.495842 56.593743-32.676753c3.87295 11.152475 5.19097 21.473584 4.349465 30.72a192.998653 192.998653 0 0 1-41.314851-2.423128l-6.387327 13.474217c14.143366 2.646178 28.702416 3.771564 43.474376 3.487684-7.228832 16.01901-23.815604 32.808554-49.435881 50.429465l13.352554 9.297109c28.702416-21.20998 46.678178-41.375683 53.511604-60.770852 36.367208-3.487683 74.518812-15.471525 114.231763-36.336792l-4.217664-15.339723c-37.756198 20.25695-73.50495 32.392871-107.124594 36.600397 0.95303-10.848317-1.287604-23.197149-6.336633-37.279684l62.200396-35.91097-44.163802-76.495842-59.878654 34.572674-9.702653-16.809822 75.91794-43.829228-7.472158-12.936871-165.543287 95.576713z m190.09901 15.664159l-46.73901 26.98899-7.340357-14.052119-3.903366-6.752317 46.171247-26.664554 11.821624 20.48z m-60.649188 35.018772l-44.812674 25.873742-11.821624-20.48 45.390575-26.198178 3.903366 6.752317c2.676594 4.643485 5.170693 9.388356 7.340357 14.052119z m-63.325783-6.184555l-11.710099-20.287366 45.390575-26.208317 11.710099 20.277228-45.390575 26.218455z m47.590654-54.525465l46.171247-26.654416 11.710099 20.277228-46.171247 26.664554-11.710099-20.287366zM858.480032 265.864871c-14.052119 18.938931-32.54495 35.535842-55.691406 49.415604l47.732594 82.670258c15.988594 29.91905 23.075485 56.472079 21.270812 79.669227l15.877069 4.744872c2.534653-27.729109-5.403881-58.43897-23.62297-92.220832l-13.281584-22.984238 28.590891-16.505663 59.564356 103.150257 13.707406-7.908118-59.554218-103.160396 20.094733-11.598575-7.705347-13.332277-62.382891 36.022495-20.297505-35.150574c20.196119-13.200475 36.590257-28.08396 49.790733-44.457822l-14.092673-8.354218z m-152.312396 107.773466l7.360633 12.754376 87.110971-50.297663-7.360634-12.754377-36.49901 21.088317a261.687762 261.687762 0 0 0-19.354614-14.336l-12.957148 10.574574c6.184554 3.122693 12.318416 7.056475 18.594217 11.669545l-36.904554 21.301228z m23.379643 44.964752l7.249109 12.561743 39.023525-22.528 12.490772 21.635802-35.931247 20.743604 7.360633 12.744237 35.931248-20.743604 29.665584 51.382495c2.676594 4.633347 1.500515 8.404911-3.518099 11.304555-2.70701 1.561347-5.829703 2.838812-9.256554 4.055445l10.371801 11.264 10.432634-6.022336c11.203168-6.468436 13.788515-14.913901 7.776317-25.346535l-31.561505-54.667406 33.994772-19.628356-7.360633-12.744238-33.994773 19.628356-12.490772-21.635801 37.279683-21.524278-7.249109-12.561742-21.828435 12.602297c-0.121663-8.678653-1.186218-18.117703-2.899644-28.205624l-15.005148 3.00103c2.453545 10.949703 4.298772 21.72705 5.343049 32.453703l-21.240396 12.267722c-9.124752-8.648238-17.610772-15.329584-25.407366-20.358336l-9.80404 11.578297c7.766178 4.53196 15.481663 9.864871 22.842297 15.917624l-22.203564 12.825346z m49.74004 47.783287c5.55596 19.456 7.908119 38.699089 6.863841 57.850931l15.826377 0.648871c0.527208-19.618218-2.139248-40.747089-8.384634-63.163564l-14.305584 4.663762z m54.647129-33.356039l-9.793901 9.773623a307.27097 307.27097 0 0 1 34.146851 27.931882l9.023366-11.132198c-9.104475-8.648238-20.327921-17.367446-33.366178-26.573307z" fill="#8F77F0" p-id="15916"></path></svg>